<?xml version="1.0" encoding="UTF-8" ?>
<!DOCTYPE svg PUBLIC "-//W3C//DTD SVG 1.1//EN" "http://www.w3.org/Graphics/SVG/1.1/DTD/svg11.dtd">
<svg width="687pt" height="224pt" viewBox="0 0 687 224" version="1.1" xmlns="http://www.w3.org/2000/svg">
<g id="#ffffffff">
</g>
<g id="#1d1c1bff">
<path fill="#1d1c1b" opacity="1.00" d=" M 100.52 31.83 C 117.73 29.41 135.60 32.23 151.25 39.81 C 153.79 41.14 156.70 42.13 158.59 44.39 C 160.02 46.22 159.02 48.80 157.57 50.30 C 155.66 51.99 153.19 50.62 151.26 49.74 C 138.58 43.20 124.38 39.11 110.03 39.71 C 98.49 40.16 87.16 43.58 77.05 49.11 C 75.43 49.94 73.80 50.89 71.98 51.20 C 68.11 50.96 66.32 45.07 69.94 43.12 C 79.16 37.24 89.71 33.46 100.52 31.83 Z" />
<path fill="#1d1c1b" opacity="1.00" d=" M 246.24 32.22 C 249.95 29.55 253.88 35.92 249.90 38.08 C 246.20 40.57 242.45 34.38 246.24 32.22 Z" />
<path fill="#1d1c1b" opacity="1.00" d=" M 256.39 32.53 C 258.68 30.20 263.03 32.89 262.01 35.93 C 261.57 38.40 258.13 39.45 256.36 37.69 C 254.83 36.41 254.83 33.75 256.39 32.53 Z" />
<path fill="#1d1c1b" opacity="1.00" d=" M 450.22 32.13 C 453.00 30.25 456.81 33.98 454.94 36.79 C 453.85 39.09 450.16 39.15 448.98 36.92 C 447.93 35.34 448.54 32.99 450.22 32.13 Z" />
<path fill="#1d1c1b" opacity="1.00" d=" M 460.40 32.37 C 462.72 30.36 466.68 32.87 465.84 35.82 C 465.50 38.30 462.13 39.44 460.29 37.79 C 458.57 36.52 458.65 33.58 460.40 32.37 Z" />
<path fill="#1d1c1b" opacity="1.00" d=" M 399.83 36.54 C 401.62 36.54 403.42 36.54 405.22 36.54 C 405.19 48.69 405.27 60.85 405.18 73.00 C 405.19 77.53 403.30 82.84 398.58 84.32 C 393.25 85.67 387.67 84.81 382.24 85.05 C 381.42 87.98 380.37 91.02 378.03 93.11 C 375.08 96.02 370.85 96.87 366.90 97.30 C 366.89 95.61 366.89 93.93 366.89 92.24 C 372.21 92.48 376.93 88.42 377.07 83.02 C 377.59 72.34 377.11 61.63 377.32 50.94 C 379.09 50.94 380.87 50.94 382.65 50.94 C 382.72 60.51 382.67 70.08 382.68 79.65 C 386.95 79.50 391.30 80.10 395.51 79.28 C 399.06 78.31 399.84 74.20 399.81 71.02 C 399.86 59.53 399.81 48.04 399.83 36.54 Z" />
<path fill="#1d1c1b" opacity="1.00" d=" M 415.12 36.54 C 416.90 36.54 418.67 36.55 420.46 36.55 C 420.46 52.71 420.48 68.88 420.45 85.05 C 418.67 85.04 416.91 85.05 415.14 85.05 C 415.08 68.88 415.13 52.71 415.12 36.54 Z" />
<path fill="#1d1c1b" opacity="1.00" d=" M 586.32 69.96 C 586.32 58.82 586.29 47.68 586.32 36.54 C 588.09 36.54 589.87 36.54 591.66 36.54 C 591.67 48.37 591.66 60.20 591.66 72.03 C 591.66 75.89 590.92 80.24 587.77 82.84 C 585.35 84.86 582.04 85.01 579.04 85.05 C 561.26 85.07 543.47 84.99 525.69 85.09 C 524.87 88.11 523.72 91.20 521.29 93.30 C 518.34 96.05 514.25 96.87 510.39 97.33 C 510.36 95.64 510.34 93.94 510.32 92.25 C 514.94 92.47 518.99 89.53 520.25 85.10 C 514.96 84.78 508.99 86.01 504.40 82.71 C 494.81 75.71 495.39 58.61 505.81 52.64 C 512.36 48.91 522.58 51.05 525.10 58.77 C 527.20 65.53 525.80 72.75 526.21 79.71 C 530.61 79.73 535.01 79.69 539.41 79.74 C 535.02 73.55 534.99 64.08 540.46 58.52 C 545.92 53.05 556.49 53.67 560.71 60.37 C 564.33 66.19 563.92 74.19 559.85 79.69 C 563.42 79.65 566.99 79.68 570.57 79.66 C 573.60 67.07 566.24 52.81 553.60 49.13 C 553.60 47.28 553.60 45.44 553.62 43.59 C 562.98 46.07 571.23 53.13 574.40 62.38 C 576.43 67.92 576.51 73.90 576.21 79.72 C 578.86 79.62 581.95 80.06 584.09 78.10 C 586.26 76.01 586.19 72.74 586.32 69.96 M 507.59 57.56 C 501.73 62.53 501.72 72.58 507.17 77.85 C 510.92 81.04 516.22 79.26 520.69 79.65 C 520.58 73.81 520.92 67.95 520.53 62.12 C 519.67 56.38 511.89 53.93 507.59 57.56 M 547.49 59.67 C 541.39 61.74 540.80 70.02 542.91 75.17 C 544.88 80.55 553.48 81.32 556.19 76.21 C 558.05 72.27 558.13 67.45 556.60 63.39 C 555.24 59.84 550.89 58.58 547.49 59.67 Z" />
<path fill="#1d1c1b" opacity="1.00" d=" M 601.61 36.54 C 603.37 36.54 605.14 36.55 606.91 36.55 C 606.90 52.71 606.94 68.88 606.88 85.05 C 605.12 85.05 603.37 85.05 601.62 85.05 C 601.60 68.88 601.61 52.71 601.61 36.54 Z" />
<path fill="#1d1c1b" opacity="1.00" d=" M 344.49 39.66 C 346.76 38.34 349.91 40.31 349.58 42.95 C 349.56 45.73 345.74 47.16 343.82 45.24 C 342.01 43.79 342.45 40.63 344.49 39.66 Z" />
<path fill="#1d1c1b" opacity="1.00" d=" M 355.41 39.49 C 359.49 37.63 362.19 44.50 357.95 45.87 C 353.85 47.78 351.23 40.90 355.41 39.49 Z" />
<path fill="#1d1c1b" opacity="1.00" d=" M 237.10 50.13 C 239.40 46.42 243.54 43.86 247.97 43.92 C 253.37 43.85 258.77 43.94 264.17 43.91 C 264.22 52.31 264.08 60.71 264.23 69.10 C 264.30 73.23 266.24 77.93 270.50 79.23 C 273.36 80.01 276.77 80.11 279.29 78.32 C 281.43 76.62 281.58 73.61 281.71 71.09 C 281.78 64.41 281.70 57.73 281.73 51.05 C 283.53 51.06 285.34 51.06 287.14 51.07 C 287.12 58.03 287.16 64.99 287.14 71.95 C 287.17 74.58 286.64 77.17 285.88 79.68 C 288.94 79.66 292.00 79.67 295.07 79.67 C 294.19 74.51 294.40 68.86 297.31 64.33 C 302.58 55.36 317.63 55.15 323.16 63.95 C 326.18 68.57 326.41 74.41 325.42 79.69 C 329.99 79.66 334.57 79.65 339.15 79.69 C 334.52 73.15 334.33 63.59 338.95 57.01 C 344.89 48.65 359.64 49.05 364.62 58.21 C 369.84 67.35 366.52 82.22 355.15 84.58 C 344.50 85.63 333.72 84.75 323.02 85.07 C 317.45 93.66 303.04 93.72 297.47 85.11 C 288.61 84.84 279.73 85.34 270.88 84.85 C 264.98 84.61 260.35 79.86 258.80 74.39 C 254.43 81.04 243.46 81.91 238.49 75.51 C 232.85 68.48 232.62 57.79 237.10 50.13 M 243.43 50.35 C 238.77 55.29 238.41 63.17 240.85 69.24 C 242.38 73.24 246.57 76.58 251.03 75.43 C 255.09 74.80 257.40 70.80 258.06 67.06 C 259.20 60.75 258.48 54.29 258.68 47.91 C 253.64 48.40 247.47 46.35 243.43 50.35 M 347.35 56.40 C 344.02 57.89 342.35 61.54 341.89 64.97 C 341.28 69.26 341.64 74.09 344.50 77.55 C 348.39 82.19 357.20 81.43 359.60 75.63 C 361.55 70.87 361.72 65.19 359.71 60.42 C 357.75 55.76 351.68 54.33 347.35 56.40 M 307.50 62.76 C 303.96 63.84 301.80 67.37 301.27 70.88 C 300.62 74.92 300.71 79.42 302.99 82.96 C 305.59 86.99 311.59 87.74 315.50 85.26 C 318.18 83.47 319.21 80.13 319.54 77.08 C 319.94 72.96 319.77 68.33 317.00 64.99 C 314.76 62.23 310.72 61.78 307.50 62.76 Z" />
<path fill="#1d1c1b" opacity="1.00" d=" M 439.13 54.95 C 440.54 49.47 445.05 44.39 450.96 44.00 C 456.74 43.76 462.54 43.98 468.33 43.91 C 468.37 52.26 468.26 60.62 468.37 68.97 C 468.44 73.16 470.37 77.96 474.73 79.25 C 478.66 80.40 484.83 80.01 485.82 75.08 C 487.04 67.12 486.11 59.00 486.42 50.97 C 488.18 50.95 489.95 50.94 491.72 50.92 C 491.73 58.53 491.87 66.14 491.66 73.75 C 491.50 77.99 489.63 82.84 485.25 84.28 C 481.09 85.45 476.59 85.26 472.40 84.38 C 467.60 83.21 464.40 78.92 462.95 74.42 C 458.81 80.63 448.81 81.87 443.53 76.47 C 438.08 70.90 437.16 62.21 439.13 54.95 M 444.09 56.93 C 442.80 62.70 443.65 69.66 448.28 73.77 C 452.35 77.40 459.49 75.42 461.23 70.29 C 463.92 63.15 462.44 55.35 462.81 47.91 C 459.18 47.99 455.53 47.68 451.91 48.08 C 447.63 48.80 444.98 52.98 444.09 56.93 Z" />
<path fill="#1d1c1b" opacity="1.00" d=" M 108.21 51.27 C 110.02 50.47 112.10 50.88 114.03 50.78 C 129.93 50.90 145.97 55.64 158.73 65.28 C 165.35 70.24 171.17 76.28 175.99 83.00 C 177.90 85.46 176.14 89.53 173.06 89.84 C 170.24 90.41 168.71 87.65 167.23 85.81 C 154.08 68.73 132.50 58.45 110.91 59.63 C 106.15 60.58 103.87 53.28 108.21 51.27 Z" />
<path fill="#1d1c1b" opacity="1.00" d=" M 91.44 53.64 C 94.79 51.78 98.86 55.35 97.58 58.92 C 96.60 62.07 92.81 62.03 90.25 63.09 C 76.47 67.41 65.37 77.68 57.42 89.46 C 56.05 91.40 54.62 93.78 52.03 94.14 C 48.73 93.99 46.02 90.06 48.09 87.11 C 53.88 79.35 60.04 71.63 67.97 65.93 C 75.16 60.77 83.00 56.38 91.44 53.64 Z" />
<path fill="#1d1c1b" opacity="1.00" d=" M 56.39 54.31 C 59.10 52.03 63.67 54.52 63.29 58.02 C 63.45 61.08 59.74 63.50 57.05 61.90 C 54.18 60.58 53.82 56.13 56.39 54.31 Z" />
<path fill="#1d1c1b" opacity="1.00" d=" M 105.51 69.79 C 121.30 67.25 138.06 71.41 150.71 81.25 C 163.33 90.85 171.42 106.14 172.01 122.02 C 172.25 130.06 171.87 138.61 167.78 145.76 C 164.55 151.60 157.54 154.81 151.00 154.01 C 147.12 153.37 146.28 147.51 149.76 145.75 C 152.41 144.76 155.51 145.41 157.99 143.84 C 162.52 141.29 164.04 135.76 164.41 130.92 C 165.17 118.78 162.08 106.11 154.49 96.46 C 148.26 88.44 139.16 82.90 129.39 80.36 C 115.71 76.76 100.40 77.66 88.06 84.99 C 74.15 93.01 65.16 108.12 63.21 123.90 C 61.82 133.63 63.21 143.52 65.82 152.92 C 66.50 154.90 66.47 157.41 64.60 158.74 C 62.29 160.74 58.33 159.32 57.79 156.33 C 53.09 139.94 52.44 121.83 58.95 105.82 C 66.52 86.55 85.37 73.11 105.51 69.79 Z" />
<path fill="#1d1c1b" opacity="1.00" d=" M 116.33 89.40 C 118.69 87.60 122.46 89.23 122.94 92.11 C 123.91 95.39 120.21 98.79 117.05 97.26 C 113.87 96.03 113.47 91.19 116.33 89.40 Z" />
<path fill="#1d1c1b" opacity="1.00" d=" M 271.43 90.46 C 273.42 88.36 277.47 90.07 277.23 92.98 C 277.44 95.54 274.15 97.37 272.06 95.93 C 270.05 94.93 269.75 91.90 271.43 90.46 Z" />
<path fill="#1d1c1b" opacity="1.00" d=" M 282.25 90.25 C 284.36 88.42 288.01 90.27 287.80 93.06 C 287.89 95.76 284.34 97.45 282.29 95.74 C 280.46 94.50 280.44 91.51 282.25 90.25 Z" />
<path fill="#1d1c1b" opacity="1.00" d=" M 476.47 90.42 C 478.49 88.36 482.50 90.12 482.22 93.02 C 482.41 95.58 479.12 97.37 477.04 95.93 C 475.06 94.88 474.78 91.86 476.47 90.42 Z" />
<path fill="#1d1c1b" opacity="1.00" d=" M 487.30 90.23 C 489.67 88.16 493.71 90.90 492.68 93.87 C 492.11 96.77 487.62 97.34 486.36 94.66 C 485.33 93.22 485.96 91.21 487.30 90.23 Z" />
<path fill="#1d1c1b" opacity="1.00" d=" M 132.36 95.30 C 133.88 94.21 136.05 94.32 137.48 95.52 C 146.70 102.60 152.65 113.54 154.32 124.98 C 154.62 127.62 155.02 130.42 154.10 132.98 C 152.27 136.34 146.21 135.16 146.34 131.07 C 145.50 120.28 140.39 109.93 132.27 102.77 C 129.74 101.04 129.76 96.94 132.36 95.30 Z" />
<path fill="#1d1c1b" opacity="1.00" d=" M 179.38 96.44 C 182.05 94.53 186.08 96.82 185.99 100.05 C 186.39 103.48 182.00 106.07 179.25 103.93 C 176.66 102.28 176.75 97.99 179.38 96.44 Z" />
<path fill="#1d1c1b" opacity="1.00" d=" M 41.25 101.23 C 43.27 100.02 46.08 101.04 47.07 103.12 C 48.21 105.07 47.00 107.18 46.50 109.11 C 44.74 114.27 44.11 119.71 43.69 125.12 C 43.50 127.67 40.52 129.51 38.14 128.56 C 36.29 127.95 35.01 126.01 35.22 124.06 C 35.46 117.71 36.66 111.40 38.57 105.34 C 39.10 103.79 39.64 101.99 41.25 101.23 Z" />
<path fill="#1d1c1b" opacity="1.00" d=" M 106.45 108.69 C 108.84 108.07 111.45 107.17 113.89 107.95 C 117.03 109.12 117.46 113.90 114.65 115.67 C 112.19 116.82 109.27 116.54 106.88 117.92 C 102.05 120.33 99.37 125.79 99.36 131.06 C 99.50 143.83 103.87 156.89 112.96 166.09 C 118.96 172.21 126.43 176.96 134.64 179.51 C 137.01 180.12 139.32 182.33 138.41 184.98 C 138.06 187.53 135.28 188.70 132.99 188.01 C 121.07 185.75 110.99 177.77 103.67 168.39 C 94.95 157.02 89.32 142.55 90.91 128.06 C 91.74 119.31 98.01 111.30 106.45 108.69 Z" />
<path fill="#1d1c1b" opacity="1.00" d=" M 186.37 110.44 C 189.25 109.11 192.73 111.86 192.30 114.94 C 192.27 118.03 188.46 120.16 185.83 118.48 C 182.72 116.82 183.04 111.63 186.37 110.44 Z" />
<path fill="#1d1c1b" opacity="1.00" d=" M 125.33 114.28 C 128.20 112.47 131.24 115.03 132.22 117.72 C 133.63 120.64 134.67 123.75 135.17 126.96 C 135.45 131.17 129.35 133.37 126.99 129.81 C 125.57 126.70 124.89 123.29 123.58 120.13 C 122.56 118.08 123.28 115.37 125.33 114.28 Z" />
<path fill="#1d1c1b" opacity="1.00" d=" M 111.34 127.38 C 113.65 125.85 117.39 127.06 117.47 130.08 C 118.04 135.95 118.84 141.95 121.79 147.17 C 126.93 157.09 137.86 163.61 149.03 163.39 C 151.43 163.57 154.48 162.53 156.27 164.70 C 158.50 167.02 157.22 171.43 154.01 172.03 C 138.96 174.42 123.22 166.38 115.38 153.48 C 111.58 147.35 109.46 140.18 109.33 132.97 C 109.32 131.00 109.50 128.56 111.34 127.38 Z" />
<path fill="#1d1c1b" opacity="1.00" d=" M 233.65 138.45 C 235.68 138.45 237.72 138.45 239.75 138.44 C 239.76 152.31 239.72 166.19 239.76 180.07 C 239.66 184.77 243.14 188.85 247.39 190.48 C 253.04 192.69 259.82 192.38 265.06 189.19 C 268.26 187.30 270.51 183.77 270.39 179.99 C 270.45 166.14 270.39 152.29 270.41 138.44 C 272.42 138.45 274.43 138.45 276.45 138.45 C 276.44 152.30 276.45 166.15 276.45 180.00 C 276.68 187.76 270.62 194.51 263.43 196.64 C 254.81 199.32 244.34 197.78 237.93 191.07 C 235.10 188.15 233.65 184.09 233.67 180.05 C 233.63 166.19 233.67 152.32 233.65 138.45 Z" />
<path fill="#1d1c1b" opacity="1.00" d=" M 308.26 137.57 C 309.79 137.58 311.32 137.59 312.86 137.60 C 320.73 157.49 328.61 177.38 336.52 197.25 C 334.37 197.25 332.22 197.25 330.08 197.25 C 327.65 191.21 325.14 185.19 322.71 179.15 C 314.64 179.10 306.56 179.11 298.49 179.14 C 295.98 185.17 293.44 191.18 291.07 197.26 C 288.90 197.25 286.74 197.25 284.58 197.25 C 292.50 177.37 300.38 157.47 308.26 137.57 M 310.70 145.95 C 307.31 155.14 304.10 164.39 300.79 173.61 C 307.29 173.62 313.79 173.62 320.29 173.61 C 317.12 164.39 313.83 155.20 310.70 145.95 Z" />
<path fill="#1d1c1b" opacity="1.00" d=" M 344.30 138.44 C 355.85 138.45 367.41 138.46 378.97 138.44 C 378.97 140.45 378.97 142.46 378.98 144.48 C 369.45 144.47 359.92 144.48 350.39 144.48 C 350.39 151.25 350.39 158.02 350.39 164.79 C 359.72 164.80 369.05 164.79 378.38 164.80 C 378.38 166.81 378.37 168.82 378.38 170.83 C 369.05 170.81 359.72 170.83 350.40 170.82 C 350.38 177.64 350.39 184.47 350.40 191.29 C 359.97 191.28 369.55 191.29 379.13 191.29 C 379.13 193.27 379.13 195.26 379.14 197.26 C 367.52 197.26 355.91 197.26 344.29 197.26 C 344.30 177.65 344.29 158.05 344.30 138.44 Z" />
<path fill="#1d1c1b" opacity="1.00" d=" M 413.16 138.38 C 420.74 138.45 428.33 138.31 435.92 138.44 C 441.93 138.64 447.73 142.14 450.47 147.54 C 455.65 156.91 452.55 170.95 442.13 175.23 C 434.82 177.89 426.85 176.18 419.25 176.66 C 419.23 183.52 419.24 190.39 419.24 197.26 C 417.21 197.25 415.18 197.25 413.16 197.26 C 413.16 177.63 413.16 158.01 413.16 138.38 M 419.23 144.48 C 419.25 153.25 419.24 162.01 419.24 170.77 C 424.49 170.74 429.75 170.85 435.00 170.74 C 439.28 170.63 443.52 168.20 445.49 164.34 C 449.12 157.41 446.16 146.91 438.03 144.91 C 431.82 143.97 425.49 144.71 419.23 144.48 Z" />
<path fill="#1d1c1b" opacity="1.00" d=" M 453.36 197.26 C 461.25 177.36 469.15 157.48 477.03 137.58 C 478.54 137.58 480.07 137.58 481.60 137.58 C 489.50 157.47 497.39 177.36 505.27 197.25 C 503.13 197.25 500.99 197.25 498.86 197.26 C 496.40 191.22 493.92 185.19 491.48 179.15 C 483.40 179.11 475.33 179.11 467.25 179.14 C 464.75 185.17 462.20 191.18 459.83 197.26 C 457.67 197.26 455.51 197.25 453.36 197.26 M 469.55 173.61 C 476.05 173.62 482.55 173.63 489.05 173.60 C 485.83 164.39 482.70 155.15 479.38 145.97 C 476.14 155.20 472.84 164.40 469.55 173.61 Z" />
<path fill="#1d1c1b" opacity="1.00" d=" M 516.63 143.61 C 524.46 136.49 537.43 135.70 546.02 141.91 C 549.09 144.13 551.00 147.54 552.02 151.14 C 550.03 151.22 548.05 151.30 546.07 151.35 C 541.89 142.20 528.52 141.38 521.30 147.26 C 516.46 150.96 516.75 159.84 522.62 162.38 C 530.72 165.81 540.44 163.90 548.00 169.03 C 555.41 173.53 555.62 184.90 549.81 190.80 C 541.07 199.83 524.59 200.39 515.74 191.23 C 513.35 188.83 512.04 185.64 511.41 182.36 C 513.43 182.30 515.46 182.25 517.49 182.20 C 520.78 193.28 536.90 194.66 544.61 187.49 C 548.87 183.92 549.10 175.85 543.76 173.20 C 535.68 169.38 525.84 171.78 518.11 166.85 C 510.20 162.05 510.01 149.59 516.63 143.61 Z" />
<path fill="#1d1c1b" opacity="1.00" d=" M 568.89 143.88 C 576.39 136.71 588.95 135.75 597.65 141.28 C 601.18 143.48 603.43 147.19 604.55 151.13 C 602.57 151.22 600.60 151.30 598.64 151.38 C 594.34 142.13 580.73 141.33 573.54 147.50 C 568.87 151.37 569.46 160.20 575.41 162.52 C 583.57 165.74 593.30 163.96 600.80 169.23 C 607.61 173.63 608.07 184.07 603.02 189.99 C 596.74 197.41 585.64 199.44 576.64 196.52 C 570.27 194.52 564.89 189.12 563.94 182.37 C 565.93 182.29 567.93 182.16 569.94 182.30 C 573.70 193.78 591.04 194.87 598.26 186.24 C 601.53 182.34 600.97 175.25 595.99 173.04 C 588.06 169.53 578.63 171.64 571.02 167.09 C 562.88 162.58 562.37 150.01 568.89 143.88 Z" />
<path fill="#1d1c1b" opacity="1.00" d=" M 135.19 139.20 C 138.50 137.67 142.24 141.64 140.81 144.91 C 140.04 147.72 136.21 148.89 134.00 146.99 C 131.34 145.00 132.00 140.22 135.19 139.20 Z" />
<path fill="#1d1c1b" opacity="1.00" d=" M 166.39 157.44 C 169.39 155.17 173.93 158.49 172.99 162.01 C 172.61 165.04 168.70 166.80 166.25 164.89 C 163.73 163.23 163.79 158.99 166.39 157.44 Z" />
<path fill="#1d1c1b" opacity="1.00" d=" M 65.34 167.36 C 68.05 165.55 71.99 167.84 71.90 171.05 C 72.22 174.40 68.09 176.98 65.28 175.01 C 62.53 173.40 62.61 168.94 65.34 167.36 Z" />
</g>
<g id="#1eab75ff">
<path fill="#1eab75" opacity="1.00" d=" M 100.47 90.64 C 102.25 90.04 104.55 89.47 106.05 90.97 C 108.60 92.97 107.80 97.65 104.59 98.47 C 94.99 101.47 86.83 108.81 83.16 118.21 C 80.29 125.13 80.42 132.84 81.29 140.16 C 82.28 148.76 85.28 157.01 89.45 164.56 C 91.50 167.49 88.45 171.89 85.01 171.07 C 81.57 170.31 80.86 166.25 79.38 163.58 C 73.91 149.83 69.73 134.43 73.71 119.72 C 77.12 106.41 87.31 94.92 100.47 90.64 Z" />
</g>
<g id="#e82026ff">
<path fill="#e82026" opacity="1.00" d=" M 92.41 176.32 C 94.33 174.71 97.14 175.47 98.60 177.31 C 101.80 180.49 105.18 183.48 108.86 186.09 C 112.24 188.25 109.90 194.17 105.94 193.46 C 100.43 191.41 95.63 187.57 91.93 183.05 C 90.19 181.17 90.28 177.86 92.41 176.32 Z" />
</g>
</svg>
