<?xml version="1.0" encoding="UTF-8"?>
<!DOCTYPE svg PUBLIC "-//W3C//DTD SVG 1.1//EN" "http://www.w3.org/Graphics/SVG/1.1/DTD/svg11.dtd">
<!-- Creator: CorelDRAW 2021 (64-Bit) -->
<svg xmlns="http://www.w3.org/2000/svg" xml:space="preserve" width="0.749846in" height="0.74985in" version="1.1" style="shape-rendering:geometricPrecision; text-rendering:geometricPrecision; image-rendering:optimizeQuality; fill-rule:evenodd; clip-rule:evenodd"
viewBox="0 0 32.29 32.3"
 xmlns:xlink="http://www.w3.org/1999/xlink"
 xmlns:xodm="http://www.corel.com/coreldraw/odm/2003">
 <defs>
  <style type="text/css">
   <![CDATA[
    .fil2 {fill:#042944}
    .fil0 {fill:#FF7905}
    .fil1 {fill:white}
    .fil3 {fill:#042944;fill-rule:nonzero}
   ]]>
  </style>
   <clipPath id="id0">
    <rect x="0.76" y="0.76" width="30.78" height="30.72"/>
   </clipPath>
 </defs>
 <g id="Layer_x0020_1">
  <metadata id="CorelCorpID_0Corel-Layer"/>
  <circle class="fil0" cx="16.15" cy="16.15" r="16.15"/>
  <g style="clip-path:url(#id0)">
   <image x="0.76" y="0.76" width="30.78" height="30.72" xlink:href="favi_Images\favi_ImgID1.png"/>
  </g>
  <circle class="fil1" cx="16.15" cy="16.15" r="13.98"/>
  <path class="fil2" d="M17.96 27.9c-6.48,0 -11.74,-5.25 -11.74,-11.74 0,-6.48 5.25,-11.74 11.74,-11.74 3.02,0 5.78,1.14 7.86,3.02 -2.34,-2.59 -5.72,-4.23 -9.49,-4.23 -7.05,0 -12.76,5.71 -12.76,12.76 0,7.05 5.71,12.76 12.76,12.76 2.75,0 5.29,-0.87 7.38,-2.35 -1.7,0.95 -3.66,1.5 -5.74,1.5z"/>
  <path class="fil3" d="M21.24 9.91l0.13 2.93 -0.35 0c-0.07,-0.51 -0.16,-0.88 -0.28,-1.1 -0.19,-0.35 -0.44,-0.62 -0.76,-0.78 -0.32,-0.17 -0.73,-0.25 -1.24,-0.25l-1.76 0 0 9.52c0,0.77 0.08,1.25 0.25,1.44 0.23,0.26 0.59,0.39 1.07,0.39l0.43 0 0 0.34 -5.3 0 0 -0.34 0.45 0c0.53,0 0.91,-0.16 1.13,-0.48 0.13,-0.2 0.2,-0.65 0.2,-1.34l0 -9.52 -1.5 0c-0.58,0 -1,0.04 -1.24,0.13 -0.32,0.12 -0.59,0.34 -0.82,0.67 -0.23,0.33 -0.36,0.78 -0.4,1.34l-0.35 0 0.13 -2.93 10.19 0z"/>
 </g>
</svg>
