<?xml version="1.0" encoding="UTF-8"?>
<!DOCTYPE svg PUBLIC "-//W3C//DTD SVG 1.1//EN" "http://www.w3.org/Graphics/SVG/1.1/DTD/svg11.dtd">
<!-- Creator: CorelDRAW 2021 (64-Bit) -->
<svg xmlns="http://www.w3.org/2000/svg" xml:space="preserve" width="4.38591in" height="0.74985in" version="1.1" style="shape-rendering:geometricPrecision; text-rendering:geometricPrecision; image-rendering:optimizeQuality; fill-rule:evenodd; clip-rule:evenodd"
viewBox="0 0 1104.86 188.9"
 xmlns:xlink="http://www.w3.org/1999/xlink"
 xmlns:xodm="http://www.corel.com/coreldraw/odm/2003">
 <defs>
  <style type="text/css">
   <![CDATA[
    .fil2 {fill:#042944}
    .fil0 {fill:#FF7905}
    .fil1 {fill:white}
    .fil3 {fill:#042944;fill-rule:nonzero}
   ]]>
  </style>
   <clipPath id="id0">
    <rect x="4.42" y="4.6" width="180.06" height="179.69"/>
   </clipPath>
 </defs>
 <g id="Layer_x0020_1">
  <metadata id="CorelCorpID_0Corel-Layer"/>
  <circle class="fil0" cx="94.45" cy="94.45" r="94.45"/>
  <g style="clip-path:url(#id0)">
   <image x="4.42" y="4.6" width="180.06" height="179.69" xlink:href="logo-dark_Images\logo-dark_ImgID1.png"/>
  </g>
  <circle class="fil1" cx="94.45" cy="94.45" r="81.79"/>
  <path class="fil2" d="M105.08 164.16c-37.91,0 -68.64,-30.73 -68.64,-68.65 0,-37.91 30.73,-68.65 68.64,-68.65 17.67,0 33.78,6.68 45.95,17.64 -13.67,-15.18 -33.47,-24.72 -55.5,-24.72 -41.23,0 -74.66,33.43 -74.66,74.66 0,41.23 33.43,74.66 74.66,74.66 16.07,0 30.96,-5.08 43.14,-13.72 -9.93,5.58 -21.39,8.76 -33.59,8.76z"/>
  <path class="fil3" d="M124.25 57.99l0.77 17.14 -2.04 0c-0.4,-3.01 -0.94,-5.17 -1.61,-6.45 -1.12,-2.07 -2.58,-3.61 -4.44,-4.58 -1.85,-0.99 -4.27,-1.48 -7.28,-1.48l-10.27 0 0 55.66c0,4.49 0.48,7.3 1.45,8.41 1.36,1.5 3.45,2.26 6.27,2.26l2.51 0 0 1.98 -31.02 0 0 -1.98 2.62 0c3.12,0 5.32,-0.94 6.64,-2.8 0.79,-1.16 1.19,-3.78 1.19,-7.86l0 -55.66 -8.74 0c-3.41,0 -5.83,0.26 -7.26,0.75 -1.87,0.68 -3.45,1.98 -4.79,3.92 -1.32,1.93 -2.11,4.55 -2.36,7.85l-2.04 0 0.77 -17.14 59.62 0z"/>
  <path class="fil3" d="M249.39 133.81l0 -28.6 -18.06 0 0 23.33c0,4.52 -1,6.77 -3.01,6.77 -2.01,0 -3.01,-2.26 -3.01,-6.77l0 -66.53c0,-5.42 1,-8.13 3.01,-8.13 2.01,0 3.01,2.71 3.01,8.13l0 20.62 18.06 0 0 -27.1c0,-6.92 -1.78,-12.44 -5.34,-16.56 -3.56,-4.11 -8.81,-6.17 -15.73,-6.17 -6.92,0 -12.17,2.06 -15.73,6.17 -3.56,4.11 -5.34,9.63 -5.34,16.56l0 78.28c0,6.92 1.78,12.37 5.34,16.33 3.56,3.96 8.81,5.95 15.73,5.95 6.92,0 12.17,-1.98 15.73,-5.95 3.56,-3.96 5.34,-9.41 5.34,-16.33z"/>
  <path id="_1" class="fil3" d="M296.65 154.89c-1.21,-3.11 -1.81,-9.08 -1.81,-17.91l0 -24.24c0,-6.02 -2.36,-9.58 -7.07,-10.69 3.81,-1.1 5.72,-4.36 5.72,-9.78l0 -20.47c0,-12.84 -5.57,-19.27 -16.71,-19.27l-19.12 0 0 102.36 16.71 0 0 -44.71 1.2 0c1.71,0 2.81,1.05 3.31,3.16l0 5.72c0,8.43 0,14.1 0,17.01 0,2.91 -0.05,3.11 -0.15,0.6 0.1,4.62 0.33,8.43 0.68,11.44 0.35,3.01 0.78,5.27 1.28,6.77l15.96 0zm-17.76 -76.02l0 8.13c0,4.32 -1.1,6.47 -3.31,6.47l-1.2 0 0 -25.59 1.2 0c0.7,0 1.15,0.05 1.35,0.15 1.31,0.4 1.96,4.01 1.96,10.84z"/>
  <polygon id="_2" class="fil3" points="334.44,154.89 334.44,136.97 319.08,136.97 319.08,110.18 329.32,110.18 329.32,93.47 319.08,93.47 319.08,67.88 334.44,67.88 334.44,52.83 302.37,52.83 302.37,154.89 "/>
  <path id="_3" class="fil3" d="M379.14 131.86c0,-7.23 -2.56,-15.76 -7.68,-25.59l-12.8 -24.24c-1.3,-2.51 -1.96,-5.07 -1.96,-7.68 0,-3.51 1,-5.27 3.01,-5.27 2.71,0 4.06,4.32 4.06,12.95l0 3.76 14.15 0c0,-11.14 -0.65,-18.67 -1.96,-22.58 -2.51,-7.93 -8.03,-11.89 -16.56,-11.89 -6.02,0 -10.74,2.16 -14.15,6.47 -3.01,3.91 -4.52,8.98 -4.52,15.2 0,8.13 1.71,15.4 5.12,21.83l14.15 26.79c2.51,4.62 3.76,8.48 3.76,11.59 0,3.41 -1.35,5.12 -4.06,5.12 -2.81,0 -4.42,-2.31 -4.82,-6.92l0 -9.78 -14.15 0c0,10.74 0.75,18.26 2.26,22.58 2.71,7.73 8.38,11.59 17.01,11.59 6.62,0 11.59,-2.41 14.9,-7.23 2.81,-4.01 4.21,-9.58 4.21,-16.71z"/>
  <path id="_4" class="fil3" d="M422.65 136.97l0 -24.24 -15.35 0 0 19.72c0,3.91 -0.85,5.87 -2.56,5.87 -1.71,0 -2.56,-1.96 -2.56,-5.87l0 -56.45c0,-4.62 0.85,-6.92 2.56,-6.92 1.71,0 2.56,2.31 2.56,6.92l0 17.46 15.35 0 0 -23.03c0,-12.84 -5.97,-19.27 -17.91,-19.27 -5.82,0 -10.26,1.71 -13.32,5.12 -3.06,3.41 -4.59,8.13 -4.59,14.15l0 66.54c0,5.82 1.53,10.41 4.59,13.77 3.06,3.36 7.5,5.04 13.32,5.04 11.94,0 17.91,-6.27 17.91,-18.82z"/>
  <polygon id="_5" class="fil3" points="462.39,154.89 462.39,136.97 447.03,136.97 447.03,110.18 457.27,110.18 457.27,93.47 447.03,93.47 447.03,67.88 462.39,67.88 462.39,52.83 430.33,52.83 430.33,154.89 "/>
  <polygon id="_6" class="fil3" points="511.01,154.89 511.01,52.53 496.86,52.53 496.86,101.15 489.94,52.53 468.71,52.53 468.71,154.89 482.86,154.89 482.86,102.5 491.74,154.89 "/>
  <polygon id="_7" class="fil3" points="550.6,67.88 550.6,52.83 515.98,52.83 515.98,67.88 525.01,67.88 525.01,154.89 541.57,154.89 541.57,67.88 "/>
  <polygon id="_8" class="fil3" points="630.83,52.53 630.83,34.46 590.19,34.46 590.19,52.53 600.73,52.53 600.73,154.89 620.3,154.89 620.3,52.53 "/>
  <polygon id="_9" class="fil3" points="652.81,154.89 652.81,52.53 636.1,52.53 636.1,154.89 "/>
  <polygon id="_10" class="fil3" points="689.84,154.89 689.84,136.97 677.05,136.97 677.05,52.53 660.34,52.53 660.34,154.89 "/>
  <polygon id="_11" class="fil3" points="730.19,154.89 730.19,136.97 714.83,136.97 714.83,110.18 725.07,110.18 725.07,93.47 714.83,93.47 714.83,67.88 730.19,67.88 730.19,52.83 698.12,52.83 698.12,154.89 "/>
  <path id="_12" class="fil3" d="M774.89 131.86c0,-7.23 -2.56,-15.76 -7.68,-25.59l-12.8 -24.24c-1.3,-2.51 -1.96,-5.07 -1.96,-7.68 0,-3.51 1,-5.27 3.01,-5.27 2.71,0 4.06,4.32 4.06,12.95l0 3.76 14.15 0c0,-11.14 -0.65,-18.67 -1.96,-22.58 -2.51,-7.93 -8.03,-11.89 -16.56,-11.89 -6.02,0 -10.74,2.16 -14.15,6.47 -3.01,3.91 -4.52,8.98 -4.52,15.2 0,8.13 1.71,15.4 5.12,21.83l14.15 26.79c2.51,4.62 3.76,8.48 3.76,11.59 0,3.41 -1.35,5.12 -4.06,5.12 -2.81,0 -4.42,-2.31 -4.82,-6.92l0 -9.78 -14.15 0c0,10.74 0.75,18.26 2.26,22.58 2.71,7.73 8.38,11.59 17.01,11.59 6.62,0 11.59,-2.41 14.9,-7.23 2.81,-4.01 4.21,-9.58 4.21,-16.71z"/>
  <polygon id="_13" class="fil3" points="857.84,52.53 857.84,34.46 820.2,34.46 820.2,154.89 839.77,154.89 839.77,102.2 851.82,102.2 851.82,82.63 839.77,82.63 839.77,52.53 "/>
  <path id="_14" class="fil3" d="M897.73 154.89l-9.03 -102.36 -20.47 0 -8.88 102.36 13.85 0 1.2 -17.91 6.92 0 1.35 17.91 15.05 0zm-17.46 -34.47l-4.67 0 2.26 -32.06 2.41 32.06z"/>
  <path id="_15" class="fil3" d="M937.32 136.97l0 -24.24 -15.35 0 0 19.72c0,3.91 -0.85,5.87 -2.56,5.87 -1.71,0 -2.56,-1.96 -2.56,-5.87l0 -56.45c0,-4.62 0.85,-6.92 2.56,-6.92 1.71,0 2.56,2.31 2.56,6.92l0 17.46 15.35 0 0 -23.03c0,-12.84 -5.97,-19.27 -17.91,-19.27 -5.82,0 -10.26,1.71 -13.32,5.12 -3.06,3.41 -4.59,8.13 -4.59,14.15l0 66.54c0,5.82 1.53,10.41 4.59,13.77 3.06,3.36 7.5,5.04 13.32,5.04 11.94,0 17.91,-6.27 17.91,-18.82z"/>
  <polygon id="_16" class="fil3" points="977.06,67.88 977.06,52.83 942.44,52.83 942.44,67.88 951.47,67.88 951.47,154.89 968.03,154.89 968.03,67.88 "/>
  <path id="_17" class="fil3" d="M1017.85 136.97l0 -66.54c0,-12.84 -5.97,-19.27 -17.91,-19.27 -5.82,0 -10.26,1.71 -13.32,5.12 -3.06,3.41 -4.59,8.13 -4.59,14.15l0 66.54c0,5.82 1.53,10.41 4.59,13.77 3.06,3.36 7.5,5.04 13.32,5.04 11.94,0 17.91,-6.27 17.91,-18.82zm-15.35 -4.52c0,3.91 -0.85,5.87 -2.56,5.87 -1.71,0 -2.56,-1.96 -2.56,-5.87l0 -55.85c0,-5.02 0.85,-7.53 2.56,-7.53 1.71,0 2.56,2.51 2.56,7.53l0 55.85z"/>
  <path id="_18" class="fil3" d="M1064.52 154.89c-1.21,-3.11 -1.81,-9.08 -1.81,-17.91l0 -24.24c0,-6.02 -2.36,-9.58 -7.07,-10.69 3.81,-1.1 5.72,-4.36 5.72,-9.78l0 -20.47c0,-12.84 -5.57,-19.27 -16.71,-19.27l-19.12 0 0 102.36 16.71 0 0 -44.71 1.2 0c1.71,0 2.81,1.05 3.31,3.16l0 5.72c0,8.43 0,14.1 0,17.01 0,2.91 -0.05,3.11 -0.15,0.6 0.1,4.62 0.33,8.43 0.68,11.44 0.35,3.01 0.78,5.27 1.28,6.77l15.96 0zm-17.76 -76.02l0 8.13c0,4.32 -1.1,6.47 -3.31,6.47l-1.2 0 0 -25.59 1.2 0c0.7,0 1.15,0.05 1.35,0.15 1.31,0.4 1.96,4.01 1.96,10.84z"/>
  <path id="_19" class="fil3" d="M1104.86 52.53l-12.79 0 -5.12 17.91 -5.12 -17.91 -15.35 0 7.68 31.61c0.1,0.2 0.3,0.95 0.6,2.26 0.3,1.31 0.8,3.16 1.51,5.57 0.4,1.41 0.73,2.76 0.98,4.06 0.25,1.3 0.48,2.61 0.68,3.91l0 54.94 15.35 0 0 -54.94c0.8,-3.71 1.53,-6.87 2.18,-9.48 0.65,-2.61 1.23,-4.72 1.73,-6.32l7.68 -31.61z"/>
 </g>
</svg>
